<svg xmlns="http://www.w3.org/2000/svg" version="1.1" xmlns:xlink="http://www.w3.org/1999/xlink" xmlns:svgjs="http://svgjs.dev/svgjs" width="1000" height="222" viewBox="0 0 1000 222"><g transform="matrix(1,0,0,1,-0.6056348047761162,-0.3835293640926096)"><svg viewBox="0 0 396 88" data-background-color="#ffffff" preserveAspectRatio="xMidYMid meet" height="222" width="1000" xmlns="http://www.w3.org/2000/svg" xmlns:xlink="http://www.w3.org/1999/xlink"><g id="tight-bounds" transform="matrix(1,0,0,1,0.24008861730862918,0.1520296578385114)"><svg viewBox="0 0 395.52 87.6959002465916" height="87.6959002465916" width="395.52"><g><svg viewBox="0 0 395.52 87.6959002465916" height="87.6959002465916" width="395.52"><g><svg viewBox="0 0 395.52 87.6959002465916" height="87.6959002465916" width="395.52"><g id="textblocktransform"><svg viewBox="0 0 395.52 87.6959002465916" height="87.6959002465916" width="395.52" id="textblock"><g><svg viewBox="0 0 395.52 87.6959002465916" height="87.6959002465916" width="395.52"><path d="M394.594 18.809C392.735 9.706 387.435 7.176 387.435 7.176 371.165-2.2 350.86-0.179 332.619 1.168 300.414 1.222 268.339 3.225 236.208 4.299 168.767 4.463 100.749 1.769 33.643 8.414 27.339 10.453-6.54 8.814 1.121 19.974 3.129 24.617 10.456 29.769 10.232 34.029 11.236 34.775 12.631 33.064 13.226 34.138 15.309 37.033 18.711 35.667 21.501 37.379 17.614 41.948 20.403 45.753 23.062 49.74 18.377 50.778 12.371 50.287 9.675 53.727 9.396 56.222 7.89 55.748 6.235 55.639 5.026 55.566 2.59 55.839 2.999 56.622 4.394 59.298-1.594 60.846 2.162 63.467-0.422 66.308 3.948 68.765 3.353 71.842 3.278 72.461 3.687 72.989 4.338 73.135 7.22 73.917 3.018 75.447 3.464 77.103 33.029 88.427 65.104 80.599 95.394 85.806 103.259 82.165 97.346 87.098 100.489 86.334 102.943 85.442 104.728 89.137 107.499 87.044 107.927 86.443 107.276 85.023 108.8 85.296 109.6 85.442 110.307 85.405 110.418 84.568 110.586 83.312 109.117 84.094 108.726 83.439 112.947 80.126 111.906 88.009 115.866 87.681 115.68 86.716 114.528 85.332 116.889 85.514 119.232 84.131 119.306 82.984 121.389 86.097 121.463 86.771 121.835 87.244 122.43 87.572 128.938 84.185 135.409 88.773 142.233 87.244 146.417 85.569 150.433 88.154 154.672 87.517 156.16 87.007 157.666 86.097 159.098 87.626 176.632 87.954 195.319 86.589 211.943 87.681 256.364 85.642 303.836 88.518 350.674 85.824 361.719 84.786 373.192 83.312 383.958 82.128 383.958 82.128 392.679 78.888 392.679 64.323S394.538 51.579 394.817 39.982C395.096 28.385 396.398 27.912 394.538 18.809Z" opacity="1" fill="#ff851b" data-fill-palette-color="tertiary"></path><g transform="matrix(1,0,0,1,55.76832,26.230666666666668)"><svg width="283.98335999999995" viewBox="3.760004347225 -36.483333333333334 299.659995652775 37.16666488885333" height="35.23456691325828" data-palette-color="#ffffff"><path d="M10.9-3.15L10.9-3.15Q10.9-1.7 9.88-0.68 8.85 0.35 7.4 0.35 5.95 0.35 4.93-0.68 3.9-1.7 3.9-3.15 3.9-4.6 3.8-17.7 3.7-30.8 3.85-32.25L3.85-32.25Q3.9-33.7 4.95-34.68 6-35.65 7.45-35.65L7.45-35.65Q7.7-35.65 7.95-35.6L7.95-35.6Q8.05-35.6 8.2-35.65L8.2-35.65Q14.3-36.65 17.75-36.45L17.75-36.45Q24.55-36 28.05-31.7L28.05-31.7Q30.75-28.4 30.8-24.65 30.85-20.9 28.45-18.35L28.45-18.35Q26.5-16.2 23.55-15 20.6-13.8 17.55-13.65L17.55-13.65Q16.55-13.6 15.4-13.65 14.25-13.7 12.63-13.85 11-14 10.8-14.05L10.8-14.05Q10.9-6.5 10.9-3.15L10.9-3.15ZM17.25-20.65L17.25-20.65Q19.1-20.7 20.75-21.38 22.4-22.05 23.2-23L23.2-23Q23.6-23.45 23.75-23.83 23.9-24.2 23.68-25.25 23.45-26.3 22.65-27.3L22.65-27.3Q21.05-29.25 17.3-29.45L17.3-29.45Q14.8-29.6 10.8-29L10.8-29Q10.75-25.65 10.75-21.05L10.75-21.05 10.8-21.05 13.15-20.8Q14.45-20.7 15.4-20.65 16.35-20.6 17.25-20.65L17.25-20.65ZM40.85 0.35L40.85 0.35Q36.5-0.5 34.05-3.65L34.05-3.65Q31.55-6.8 31.05-10.85L31.05-10.85Q30.6-14.6 31.9-18.38 33.2-22.15 36.1-24.6L36.1-24.6Q37.25-25.6 39.05-26.15L39.05-26.15Q39.1-26.15 40.1-26.45L40.1-26.45Q40.5-26.55 40.7-26.65L40.7-26.65Q42.1-27.2 43.5-26.55L43.5-26.55Q48.2-25.8 49.8-25L49.8-25Q51.65-24.1 52.95-22.5 54.25-20.9 54.77-19.13 55.3-17.35 55.55-15.38 55.8-13.4 55.5-11.8L55.5-11.8Q55.25-9.35 54.4-7.08 53.55-4.8 51.8-2.75 50.05-0.7 47.7 0.15L47.7 0.15Q44.85 1.15 40.85 0.35L40.85 0.35ZM42.15-6.45L42.15-6.45Q44.3-6.05 45.4-6.45L45.4-6.45Q46.35-6.8 47.32-8.43 48.3-10.05 48.57-12.55 48.85-15.05 48.25-16.68 47.65-18.3 46.8-18.7L46.8-18.7Q46.15-19 45.6-19.13 45.05-19.25 44.02-19.38 43-19.5 42-19.75L42-19.75Q41.15-19.5 41.1-19.5L41.1-19.5 40.6-19.3Q39.2-18.1 38.45-16 37.7-13.9 38-11.65L38-11.65Q38.25-9.5 39.32-8.15 40.4-6.8 42.15-6.45L42.15-6.45ZM61.45-1.05L61.45-1.05Q60.4-2.05 60.4-3.45L60.4-3.45Q60.34-8.4 60.34-11.25L60.34-11.25Q60.25-11.85 60.34-12.4L60.34-12.4Q60.3-17.95 60.3-22.45L60.3-22.45Q60.3-24.4 61.32-25.43 62.34-26.45 63.8-26.45L63.8-26.45Q64.84-26.45 65.72-25.88 66.59-25.3 67-23.85L67-23.85Q69-24.95 73-26.35L73-26.35Q74.3-26.8 75.52-26.23 76.75-25.65 77.2-24.35 77.65-23.05 77.07-21.83 76.5-20.6 75.2-20.15L75.2-20.15Q70.59-18.55 67.34-17L67.34-17Q67.15-15.4 67.3-12.45L67.3-12.45Q67.34-9.3 67.4-3.55L67.4-3.55Q67.4-2.1 66.37-1.05 65.34 0 63.92 0 62.5 0 61.45-1.05L61.45-1.05ZM90.44 0.1L90.44 0.1Q89.44 0.1 88.49-0.55L88.49-0.55Q87.94-0.75 87.44-1.05L87.44-1.05 86.14-1.8Q84.14-2.95 83.14-3.95L83.14-3.95Q82.29-5.05 82.09-6.13 81.89-7.2 81.84-9.3L81.84-9.3 81.84-10.3Q81.79-11.75 81.79-17.05L81.79-17.05Q81.79-19.2 81.84-20.3L81.84-20.3 80.89-20.3Q79.64-20.3 78.72-21.18 77.79-22.05 77.79-23.4L77.79-23.4Q77.79-24.8 78.74-25.73 79.69-26.65 80.94-26.65L80.94-26.65 81.84-26.65 81.89-28.8 81.89-30.35Q81.94-31.95 82.97-32.83 83.99-33.7 85.34-33.7L85.34-33.7Q86.74-33.7 87.82-32.75 88.89-31.8 88.89-30.15L88.89-30.15 88.79-26.75 90.64-26.75Q92.44-26.75 93.34-25.8 94.24-24.85 94.24-23.4L94.24-23.4Q94.24-22 93.29-21.03 92.34-20.05 90.49-20.05L90.49-20.05 88.64-20.05Q88.64-18 88.59-17L88.59-17Q88.54-15.95 88.54-14L88.54-14Q88.54-10.8 88.74-8.45L88.74-8.45Q88.94-8.25 88.99-8.25L88.99-8.25 89.49-7.9 89.89-7.7 90.34-7.45 90.74-7.25Q91.64-6.85 92.29-6.35L92.29-6.35Q93.84-5.3 93.84-3.55L93.84-3.55Q93.84-2.15 92.84-1.03 91.84 0.1 90.44 0.1L90.44 0.1ZM102.74 0L102.74 0Q101.29 0 100.24-0.98 99.19-1.95 99.24-3.7L99.24-3.7 99.29-5.5Q99.44-10.3 99.44-14.4L99.44-14.4Q99.44-17.2 99.39-18.7L99.39-18.7 98.79-18.7Q97.29-18.7 96.44-19.6 95.59-20.5 95.59-21.9L95.59-21.9Q95.59-23.55 96.34-24.53 97.09-25.5 98.29-25.5L98.29-25.5 98.99-25.5 98.99-28.25Q98.99-32 100.94-34.08 102.89-36.15 106.39-36.25L106.39-36.25Q109.69-36.25 111.99-35.08 114.29-33.9 114.29-31.6L114.29-31.6Q114.29-30.4 113.49-29.48 112.69-28.55 111.49-28.55L111.49-28.55Q110.84-28.55 109.74-28.95L109.74-28.95Q108.54-29.45 107.59-29.45L107.59-29.45Q105.99-29.45 105.84-27.95L105.84-27.95Q105.79-27.6 105.84-27.05 105.89-26.5 105.89-25.8L105.89-25.8 105.89-25.7 108.39-25.65Q110.04-25.6 110.94-24.6 111.84-23.6 111.84-22.2L111.84-22.2Q111.84-20.75 110.87-19.73 109.89-18.7 108.19-18.7L108.19-18.7 106.34-18.7Q106.44-14.9 106.44-13.3L106.44-13.3Q106.44-9.6 106.29-5.1L106.29-5.1 106.24-3.2Q106.19-1.7 105.17-0.85 104.14 0 102.74 0L102.74 0ZM123.99 0.35L123.99 0.35Q119.64-0.5 117.19-3.65L117.19-3.65Q114.69-6.8 114.19-10.85L114.19-10.85Q113.74-14.6 115.04-18.38 116.34-22.15 119.24-24.6L119.24-24.6Q120.39-25.6 122.19-26.15L122.19-26.15Q122.24-26.15 123.24-26.45L123.24-26.45Q123.64-26.55 123.84-26.65L123.84-26.65Q125.24-27.2 126.64-26.55L126.64-26.55Q131.34-25.8 132.94-25L132.94-25Q134.79-24.1 136.09-22.5 137.39-20.9 137.91-19.13 138.44-17.35 138.69-15.38 138.94-13.4 138.64-11.8L138.64-11.8Q138.39-9.35 137.54-7.08 136.69-4.8 134.94-2.75 133.19-0.7 130.84 0.15L130.84 0.15Q127.99 1.15 123.99 0.35L123.99 0.35ZM125.29-6.45L125.29-6.45Q127.44-6.05 128.54-6.45L128.54-6.45Q129.49-6.8 130.46-8.43 131.44-10.05 131.71-12.55 131.99-15.05 131.39-16.68 130.79-18.3 129.94-18.7L129.94-18.7Q129.29-19 128.74-19.13 128.19-19.25 127.16-19.38 126.14-19.5 125.14-19.75L125.14-19.75Q124.29-19.5 124.24-19.5L124.24-19.5 123.74-19.3Q122.34-18.1 121.59-16 120.84-13.9 121.14-11.65L121.14-11.65Q121.39-9.5 122.46-8.15 123.54-6.8 125.29-6.45L125.29-6.45ZM150.44-2.85L150.44-2.85Q150.38-1.4 149.36-0.4 148.34 0.6 146.88 0.58 145.44 0.55 144.44-0.48 143.44-1.5 143.44-2.95L143.44-2.95Q143.53-2.95 143.49-17.35L143.49-17.35 143.44-32.65Q143.44-34.1 144.46-35.13 145.49-36.15 146.94-36.15 148.38-36.15 149.41-35.13 150.44-34.1 150.44-32.65L150.44-32.65Q150.44-28.65 150.46-22.7 150.49-16.75 150.49-11.93 150.49-7.1 150.44-2.85L150.44-2.85ZM155.73-3.4L155.73-3.4Q155.58-14 155.88-23.25L155.88-23.25Q155.93-24.7 157.01-25.68 158.08-26.65 159.53-26.6 160.98-26.55 161.96-25.48 162.93-24.4 162.88-22.95L162.88-22.95Q162.58-13.6 162.73-3.5L162.73-3.5Q162.73-2.05 161.73-1.03 160.73 0 159.28 0.03 157.83 0.05 156.81-0.95 155.78-1.95 155.73-3.4L155.73-3.4ZM161.68-35.15L161.68-35.15Q162.73-34.15 162.73-32.63 162.73-31.1 161.68-30.05 160.63-29 159.13-29 157.63-29 156.58-30.05 155.53-31.1 155.53-32.63 155.53-34.15 156.58-35.2 157.63-36.25 159.13-36.25 160.63-36.25 161.68-35.15L161.68-35.15ZM177.28 0.35L177.28 0.35Q172.93-0.5 170.48-3.65L170.48-3.65Q167.98-6.8 167.48-10.85L167.48-10.85Q167.03-14.6 168.33-18.38 169.63-22.15 172.53-24.6L172.53-24.6Q173.68-25.6 175.48-26.15L175.48-26.15Q175.53-26.15 176.53-26.45L176.53-26.45Q176.93-26.55 177.13-26.65L177.13-26.65Q178.53-27.2 179.93-26.55L179.93-26.55Q184.63-25.8 186.23-25L186.23-25Q188.08-24.1 189.38-22.5 190.68-20.9 191.21-19.13 191.73-17.35 191.98-15.38 192.23-13.4 191.93-11.8L191.93-11.8Q191.68-9.35 190.83-7.08 189.98-4.8 188.23-2.75 186.48-0.7 184.13 0.15L184.13 0.15Q181.28 1.15 177.28 0.35L177.28 0.35ZM178.58-6.45L178.58-6.45Q180.73-6.05 181.83-6.45L181.83-6.45Q182.78-6.8 183.76-8.43 184.73-10.05 185.01-12.55 185.28-15.05 184.68-16.68 184.08-18.3 183.23-18.7L183.23-18.7Q182.58-19 182.03-19.13 181.48-19.25 180.46-19.38 179.43-19.5 178.43-19.75L178.43-19.75Q177.58-19.5 177.53-19.5L177.53-19.5 177.03-19.3Q175.63-18.1 174.88-16 174.13-13.9 174.43-11.65L174.43-11.65Q174.68-9.5 175.76-8.15 176.83-6.8 178.58-6.45L178.58-6.45ZM212.68-0.2L212.68-0.2Q210.38 0.6 208.18 0.4 205.98 0.2 203.93-0.6L203.93-0.6Q200.73-1.9 198.48-4.85 196.23-7.8 195.93-11.35L195.93-11.35Q195.73-14.3 196.9-17.38 198.08-20.45 200.23-22.65L200.23-22.65Q201.78-24.25 203.7-25.23 205.63-26.2 208.08-26.45 210.53-26.7 213.03-25.6L213.03-25.6Q214.38-25.05 215.88-23.8L215.88-23.8Q215.98-23.7 216.53-23.2L216.53-23.2 217.43-22.45Q218.58-21.55 218.75-20.18 218.93-18.8 218.03-17.68 217.13-16.55 215.7-16.38 214.28-16.2 213.13-17.1L213.13-17.1Q213.03-17.15 211.23-18.7L211.23-18.7Q210.63-19.2 210.33-19.35L210.33-19.35Q207.63-20.45 205.33-18L205.33-18Q204.13-16.75 203.45-15.05 202.78-13.35 202.93-11.85L202.93-11.85Q203.03-10.45 204.03-8.97 205.03-7.5 206.68-6.85L206.68-6.85Q208.43-6.2 209.65-6.38 210.88-6.55 211.63-7.3L211.63-7.3Q211.88-7.55 212.23-8.35L212.23-8.35Q213.28-10.65 213.33-10.75L213.33-10.75Q213.98-12 215.35-12.43 216.73-12.85 218.03-12.23 219.33-11.6 219.75-10.25 220.18-8.9 219.53-7.65L219.53-7.65Q219.38-7.35 219.23-7.03 219.08-6.7 218.93-6.3 218.78-5.9 218.63-5.65L218.63-5.65Q217.83-3.75 216.73-2.65L216.73-2.65Q215.03-0.9 212.68-0.2L212.68-0.2ZM225.23-1.05L225.23-1.05Q224.18-2.05 224.18-3.45L224.18-3.45Q224.13-8.4 224.13-11.25L224.13-11.25Q224.03-11.85 224.13-12.4L224.13-12.4Q224.08-17.95 224.08-22.45L224.08-22.45Q224.08-24.4 225.1-25.43 226.13-26.45 227.58-26.45L227.58-26.45Q228.63-26.45 229.5-25.88 230.38-25.3 230.78-23.85L230.78-23.85Q232.78-24.95 236.78-26.35L236.78-26.35Q238.08-26.8 239.3-26.23 240.53-25.65 240.98-24.35 241.43-23.05 240.85-21.83 240.28-20.6 238.98-20.15L238.98-20.15Q234.38-18.55 231.13-17L231.13-17Q230.93-15.4 231.08-12.45L231.08-12.45Q231.13-9.3 231.18-3.55L231.18-3.55Q231.18-2.1 230.15-1.05 229.13 0 227.7 0 226.28 0 225.23-1.05L225.23-1.05ZM252.52 0.05L252.52 0.05Q250.72 0.05 248.62-0.65L248.62-0.65Q246.02-1.65 244.27-3.6L244.27-3.6Q242.57-5.6 242.17-7.95L242.17-7.95Q241.87-9.5 241.87-10.95L241.87-10.95Q241.87-14.3 243.17-17.25L243.17-17.25Q244.97-21.4 248.22-23.95 251.47-26.5 255.62-26.5L255.62-26.5Q257.12-26.5 258.87-26.1L258.87-26.1Q260.02-25.8 261.12-25.05L261.12-25.05 261.37-25.05 261.87-25.1Q263.12-25.1 264.1-24.2 265.07-23.3 265.22-22L265.22-22 265.57-18.55Q265.67-16.35 265.82-11.05L265.82-11.05 265.92-8.35Q266.02-5.85 266.05-5.08 266.07-4.3 265.97-3.6L265.97-3.6Q265.77-2.15 264.9-1.13 264.02-0.1 262.62-0.05L262.62-0.05Q261.47 0 260.55-0.63 259.62-1.25 259.22-2.9L259.22-2.9Q258.07-1.5 256.42-0.85L256.42-0.85Q254.47-0.05 252.52 0.05L252.52 0.05ZM252.57-7L252.57-7Q254.07-7 255.67-7.95L255.67-7.95Q256.07-8.2 256.57-8.7L256.57-8.7 257.32-9.4 258.17-10.6Q258.47-10.95 258.87-11.1L258.87-11.1Q258.87-15.3 258.62-18.2L258.62-18.2 258.12-18.55 257.42-19.1 256.97-19.4Q256.17-19.6 255.72-19.6L255.72-19.6Q253.92-19.6 252.25-18.2 250.57-16.8 249.57-14.3L249.57-14.3Q248.77-12.35 248.77-10.8L248.77-10.8Q248.77-9.45 249.4-8.55 250.02-7.65 251.17-7.25L251.17-7.25Q251.92-7 252.57-7L252.57-7ZM276.52 0L276.52 0Q275.07 0 274.02-0.98 272.97-1.95 273.02-3.7L273.02-3.7 273.07-5.5Q273.22-10.3 273.22-14.4L273.22-14.4Q273.22-17.2 273.17-18.7L273.17-18.7 272.57-18.7Q271.07-18.7 270.22-19.6 269.37-20.5 269.37-21.9L269.37-21.9Q269.37-23.55 270.12-24.53 270.87-25.5 272.07-25.5L272.07-25.5 272.77-25.5 272.77-28.25Q272.77-32 274.72-34.08 276.67-36.15 280.17-36.25L280.17-36.25Q283.47-36.25 285.77-35.08 288.07-33.9 288.07-31.6L288.07-31.6Q288.07-30.4 287.27-29.48 286.47-28.55 285.27-28.55L285.27-28.55Q284.62-28.55 283.52-28.95L283.52-28.95Q282.32-29.45 281.37-29.45L281.37-29.45Q279.77-29.45 279.62-27.95L279.62-27.95Q279.57-27.6 279.62-27.05 279.67-26.5 279.67-25.8L279.67-25.8 279.67-25.7 282.17-25.65Q283.82-25.6 284.72-24.6 285.62-23.6 285.62-22.2L285.62-22.2Q285.62-20.75 284.65-19.73 283.67-18.7 281.97-18.7L281.97-18.7 280.12-18.7Q280.22-14.9 280.22-13.3L280.22-13.3Q280.22-9.6 280.07-5.1L280.07-5.1 280.02-3.2Q279.97-1.7 278.95-0.85 277.92 0 276.52 0L276.52 0ZM299.62 0.1L299.62 0.1Q298.62 0.1 297.67-0.55L297.67-0.55Q297.12-0.75 296.62-1.05L296.62-1.05 295.32-1.8Q293.32-2.95 292.32-3.95L292.32-3.95Q291.47-5.05 291.27-6.13 291.07-7.2 291.02-9.3L291.02-9.3 291.02-10.3Q290.97-11.75 290.97-17.05L290.97-17.05Q290.97-19.2 291.02-20.3L291.02-20.3 290.07-20.3Q288.82-20.3 287.89-21.18 286.97-22.05 286.97-23.4L286.97-23.4Q286.97-24.8 287.92-25.73 288.87-26.65 290.12-26.65L290.12-26.65 291.02-26.65 291.07-28.8 291.07-30.35Q291.12-31.95 292.14-32.83 293.17-33.7 294.52-33.7L294.52-33.7Q295.92-33.7 296.99-32.75 298.07-31.8 298.07-30.15L298.07-30.15 297.97-26.75 299.82-26.75Q301.62-26.75 302.52-25.8 303.42-24.85 303.42-23.4L303.42-23.4Q303.42-22 302.47-21.03 301.52-20.05 299.67-20.05L299.67-20.05 297.82-20.05Q297.82-18 297.77-17L297.77-17Q297.72-15.95 297.72-14L297.72-14Q297.72-10.8 297.92-8.45L297.92-8.45Q298.12-8.25 298.17-8.25L298.17-8.25 298.67-7.9 299.07-7.7 299.52-7.45 299.92-7.25Q300.82-6.85 301.47-6.35L301.47-6.35Q303.02-5.3 303.02-3.55L303.02-3.55Q303.02-2.15 302.02-1.03 301.02 0.1 299.62 0.1L299.62 0.1Z" opacity="1" transform="matrix(1,0,0,1,0,0)" fill="#ffffff" class="wordmark-text-0" data-fill-palette-color="quaternary" id="text-0"></path></svg></g></svg></g></svg></g></svg></g><g></g></svg></g><defs></defs></svg><rect width="395.52" height="87.6959002465916" fill="none" stroke="none" visibility="hidden"></rect></g></svg></g></svg>